<svg width="24" height="24" viewBox="0 0 24 24" fill="none" xmlns="http://www.w3.org/2000/svg">
<path d="M11.6936 9.87197V12.9495" stroke="white" stroke-width="1.5" stroke-linecap="round" stroke-linejoin="round"/>
<path d="M10.4341 5.71032L4.19735 16.1233C4.06878 16.3459 4.00074 16.5984 4.00001 16.8555C3.99927 17.1126 4.06586 17.3654 4.19315 17.5888C4.32044 17.8122 4.504 17.9983 4.72557 18.1288C4.94713 18.2592 5.19899 18.3293 5.45608 18.3322H17.931C18.188 18.3293 18.4397 18.2591 18.6612 18.1287C18.8826 17.9983 19.0661 17.8122 19.1934 17.589C19.3207 17.3657 19.3873 17.113 19.3867 16.856C19.386 16.599 19.3181 16.3467 19.1897 16.1241L12.953 5.70955C12.8218 5.49297 12.637 5.31388 12.4164 5.18959C12.1957 5.0653 11.9468 5 11.6935 5C11.4403 5 11.1914 5.0653 10.9707 5.18959C10.7501 5.31388 10.5653 5.49297 10.4341 5.70955" stroke="white" stroke-width="1.5" stroke-linecap="round" stroke-linejoin="round"/>
<path d="M11.6936 15.2577H11.7013" stroke="white" stroke-width="1.5" stroke-linecap="round" stroke-linejoin="round"/>
</svg>
