<svg width="24" height="24" viewBox="0 0 24 24" fill="none" xmlns="http://www.w3.org/2000/svg">
<path d="M5.77778 11.1111C6.24927 11.1111 6.70146 11.2984 7.03486 11.6318C7.36825 11.9652 7.55556 12.4174 7.55556 12.8889V14.6667H16.4444V12.8889C16.4444 12.4174 16.6317 11.9652 16.9651 11.6318C17.2985 11.2984 17.7507 11.1111 18.2222 11.1111C18.6937 11.1111 19.1459 11.2984 19.4793 11.6318C19.8127 11.9652 20 12.4174 20 12.8889V16.4444C20 16.9159 19.8127 17.3681 19.4793 17.7015C19.1459 18.0349 18.6937 18.2222 18.2222 18.2222H5.77778C5.30628 18.2222 4.8541 18.0349 4.5207 17.7015C4.1873 17.3681 4 16.9159 4 16.4444V12.8889C4 12.4174 4.1873 11.9652 4.5207 11.6318C4.8541 11.2984 5.30628 11.1111 5.77778 11.1111Z" stroke="white" stroke-width="1.5" stroke-linecap="round" stroke-linejoin="round"/>
<path d="M5.77777 11.1111V6.66667C5.77777 5.95942 6.05872 5.28115 6.55882 4.78105C7.05892 4.28095 7.73719 4 8.44444 4H15.5555C16.2628 4 16.9411 4.28095 17.4412 4.78105C17.9413 5.28115 18.2222 5.95942 18.2222 6.66667V11.1111" stroke="white" stroke-width="1.5" stroke-linecap="round" stroke-linejoin="round"/>
<path d="M6.66663 18.2222V20" stroke="white" stroke-width="1.5" stroke-linecap="round" stroke-linejoin="round"/>
<path d="M17.3334 18.2222V20" stroke="white" stroke-width="1.5" stroke-linecap="round" stroke-linejoin="round"/>
</svg>
