<svg width="24" height="24" viewBox="0 0 24 24" fill="none" xmlns="http://www.w3.org/2000/svg">
<g clip-path="url(#clip0_1130_51520)">
<path d="M17.9785 17.0415C16.3376 15.4007 14.1122 14.479 11.7917 14.479C9.47122 14.479 7.24577 15.4007 5.60486 17.0415" stroke="white" stroke-width="1.5" stroke-linecap="round" stroke-linejoin="round"/>
<path d="M18.5 1.93781C16.8922 1.00959 14.9816 0.758049 13.1884 1.23851C11.3952 1.71898 9.86628 2.8921 8.93799 4.49981L21.062 11.4998C21.9902 9.89206 22.2417 7.98143 21.7613 6.18822C21.2808 4.39501 20.1077 2.86609 18.5 1.93781Z" stroke="white" stroke-width="1.5" stroke-linecap="round" stroke-linejoin="round"/>
<path d="M17.0206 9.16647C18.9549 5.81814 19.6164 2.5818 18.4999 1.9378C17.3834 1.2938 14.9124 3.4848 12.9792 6.83314" stroke="white" stroke-width="1.5" stroke-linecap="round" stroke-linejoin="round"/>
<path d="M15.0686 8.58314L11.5686 14.6451" stroke="white" stroke-width="1.5" stroke-linecap="round" stroke-linejoin="round"/>
<path d="M1 19.9581C1.36317 19.7776 1.76124 19.678 2.16667 19.6665C2.62108 19.6569 3.07098 19.7582 3.4775 19.9615C3.88403 20.1647 4.23497 20.4639 4.5 20.8331C4.76503 21.2024 5.11597 21.5015 5.52249 21.7048C5.92902 21.9081 6.37892 22.0093 6.83333 21.9998C7.28775 22.0093 7.73764 21.9081 8.14417 21.7048C8.5507 21.5015 8.90163 21.2024 9.16667 20.8331C9.4317 20.4639 9.78263 20.1647 10.1892 19.9615C10.5957 19.7582 11.0456 19.6569 11.5 19.6665C11.9544 19.6569 12.4043 19.7582 12.8108 19.9615C13.2174 20.1647 13.5683 20.4639 13.8333 20.8331C14.0984 21.2024 14.4493 21.5015 14.8558 21.7048C15.2624 21.9081 15.7123 22.0093 16.1667 21.9998C16.6211 22.0093 17.071 21.9081 17.4775 21.7048C17.884 21.5015 18.235 21.2024 18.5 20.8331C18.765 20.4639 19.116 20.1647 19.5225 19.9615C19.929 19.7582 20.3789 19.6569 20.8333 19.6665C21.2388 19.678 21.6368 19.7776 22 19.9581" stroke="white" stroke-width="1.5" stroke-linecap="round" stroke-linejoin="round"/>
</g>
<defs>
<clipPath id="clip0_1130_51520">
<rect width="24" height="24" fill="white"/>
</clipPath>
</defs>
</svg>
