<svg width="24" height="24" viewBox="0 0 24 24" fill="none" xmlns="http://www.w3.org/2000/svg">
<path d="M4 7.02535V18.0801" stroke="white" stroke-width="1.5" stroke-linecap="round" stroke-linejoin="round"/>
<path d="M4 18.0801C5.16345 17.4084 6.48322 17.0548 7.82666 17.0548C9.1701 17.0548 10.4899 17.4084 11.6533 18.0801C12.8168 17.4084 14.1365 17.0548 15.48 17.0548C16.8234 17.0548 18.1432 17.4084 19.3066 18.0801" stroke="white" stroke-width="1.5" stroke-linecap="round" stroke-linejoin="round"/>
<path d="M4 7.02535C5.16345 6.35363 6.48322 6 7.82666 6C9.1701 6 10.4899 6.35363 11.6533 7.02535C12.8168 6.35363 14.1365 6 15.48 6C16.8234 6 18.1432 6.35363 19.3066 7.02535" stroke="white" stroke-width="1.5" stroke-linecap="round" stroke-linejoin="round"/>
<path d="M11.6533 7.02535V18.0801" stroke="white" stroke-width="1.5" stroke-linecap="round" stroke-linejoin="round"/>
<path d="M19.3066 7.02535V18.0801" stroke="white" stroke-width="1.5" stroke-linecap="round" stroke-linejoin="round"/>
</svg>
