<svg width="24" height="24" viewBox="0 0 24 24" fill="none" xmlns="http://www.w3.org/2000/svg">
<path d="M5.33325 7.83334C5.33325 7.39131 5.50885 6.96739 5.82141 6.65483C6.13397 6.34227 6.55789 6.16667 6.99992 6.16667H16.9999C17.4419 6.16667 17.8659 6.34227 18.1784 6.65483C18.491 6.96739 18.6666 7.39131 18.6666 7.83334V17.8333C18.6666 18.2754 18.491 18.6993 18.1784 19.0118C17.8659 19.3244 17.4419 19.5 16.9999 19.5H6.99992C6.55789 19.5 6.13397 19.3244 5.82141 19.0118C5.50885 18.6993 5.33325 18.2754 5.33325 17.8333V7.83334Z" stroke="white" stroke-width="1.5" stroke-linecap="round" stroke-linejoin="round"/>
<path d="M15.3333 4.5V7.83333" stroke="white" stroke-width="1.5" stroke-linecap="round" stroke-linejoin="round"/>
<path d="M8.66675 4.5V7.83333" stroke="white" stroke-width="1.5" stroke-linecap="round" stroke-linejoin="round"/>
<path d="M5.33325 11.1667H18.6666" stroke="white" stroke-width="1.5" stroke-linecap="round" stroke-linejoin="round"/>
<path d="M7.83325 13.6667H7.84409" stroke="white" stroke-width="1.5" stroke-linecap="round" stroke-linejoin="round"/>
<path d="M10.3418 13.6667H10.3468" stroke="white" stroke-width="1.5" stroke-linecap="round" stroke-linejoin="round"/>
<path d="M12.8418 13.6667H12.8468" stroke="white" stroke-width="1.5" stroke-linecap="round" stroke-linejoin="round"/>
<path d="M15.3457 13.6667H15.3507" stroke="white" stroke-width="1.5" stroke-linecap="round" stroke-linejoin="round"/>
<path d="M12.8457 16.1667H12.8507" stroke="white" stroke-width="1.5" stroke-linecap="round" stroke-linejoin="round"/>
<path d="M7.8418 16.1667H7.8468" stroke="white" stroke-width="1.5" stroke-linecap="round" stroke-linejoin="round"/>
<path d="M10.3418 16.1667H10.3468" stroke="white" stroke-width="1.5" stroke-linecap="round" stroke-linejoin="round"/>
</svg>
