<svg width="24" height="24" viewBox="0 0 24 24" fill="none" xmlns="http://www.w3.org/2000/svg">
<path d="M5.77778 7.66667H6.66667C7.13816 7.66667 7.59035 7.47937 7.92375 7.14597C8.25714 6.81257 8.44444 6.36038 8.44444 5.88889C8.44444 5.65314 8.5381 5.42705 8.70479 5.26035C8.87149 5.09365 9.09759 5 9.33333 5H14.6667C14.9024 5 15.1285 5.09365 15.2952 5.26035C15.4619 5.42705 15.5556 5.65314 15.5556 5.88889C15.5556 6.36038 15.7429 6.81257 16.0763 7.14597C16.4097 7.47937 16.8618 7.66667 17.3333 7.66667H18.2222C18.6937 7.66667 19.1459 7.85397 19.4793 8.18737C19.8127 8.52076 20 8.97295 20 9.44444V17.4444C20 17.9159 19.8127 18.3681 19.4793 18.7015C19.1459 19.0349 18.6937 19.2222 18.2222 19.2222H5.77778C5.30628 19.2222 4.8541 19.0349 4.5207 18.7015C4.1873 18.3681 4 17.9159 4 17.4444V9.44444C4 8.97295 4.1873 8.52076 4.5207 8.18737C4.8541 7.85397 5.30628 7.66667 5.77778 7.66667Z" stroke="white" stroke-width="1.5" stroke-linecap="round" stroke-linejoin="round"/>
<path d="M9.33331 13C9.33331 13.7072 9.61426 14.3855 10.1144 14.8856C10.6145 15.3857 11.2927 15.6667 12 15.6667C12.7072 15.6667 13.3855 15.3857 13.8856 14.8856C14.3857 14.3855 14.6666 13.7072 14.6666 13C14.6666 12.2928 14.3857 11.6145 13.8856 11.1144C13.3855 10.6143 12.7072 10.3333 12 10.3333C11.2927 10.3333 10.6145 10.6143 10.1144 11.1144C9.61426 11.6145 9.33331 12.2928 9.33331 13Z" stroke="white" stroke-width="1.5" stroke-linecap="round" stroke-linejoin="round"/>
</svg>
