<svg width="24" height="24" viewBox="0 0 24 24" fill="none" xmlns="http://www.w3.org/2000/svg">
<g clip-path="url(#clip0_182_4479)">
<path d="M13.5 19.25C13.29 19.25 13.1125 19.1775 12.9675 19.0325C12.8225 18.8875 12.75 18.71 12.75 18.5V12.5C12.75 12.29 12.8225 12.1125 12.9675 11.9675C13.1125 11.8225 13.29 11.75 13.5 11.75H18C18.21 11.75 18.3875 11.8225 18.5325 11.9675C18.6775 12.1125 18.75 12.29 18.75 12.5V18.5C18.75 18.71 18.6775 18.8875 18.5325 19.0325C18.3875 19.1775 18.21 19.25 18 19.25H13.5ZM6 13.25C5.79 13.25 5.6125 13.1775 5.4675 13.0325C5.3225 12.8875 5.25 12.71 5.25 12.5V6.5C5.25 6.29 5.3225 6.1125 5.4675 5.9675C5.6125 5.8225 5.79 5.75 6 5.75H10.5C10.71 5.75 10.8875 5.8225 11.0325 5.9675C11.1775 6.1125 11.25 6.29 11.25 6.5V12.5C11.25 12.71 11.1775 12.8875 11.0325 13.0325C10.8875 13.1775 10.71 13.25 10.5 13.25H6ZM9.75 11.75V7.25H6.75V11.75H9.75ZM6 19.25C5.79 19.25 5.6125 19.1775 5.4675 19.0325C5.3225 18.8875 5.25 18.71 5.25 18.5V15.5C5.25 15.29 5.3225 15.1125 5.4675 14.9675C5.6125 14.8225 5.79 14.75 6 14.75H10.5C10.71 14.75 10.8875 14.8225 11.0325 14.9675C11.1775 15.1125 11.25 15.29 11.25 15.5V18.5C11.25 18.71 11.1775 18.8875 11.0325 19.0325C10.8875 19.1775 10.71 19.25 10.5 19.25H6ZM6.75 17.75H9.75V16.25H6.75V17.75ZM14.25 17.75H17.25V13.25H14.25V17.75ZM12.75 6.5C12.75 6.29 12.8225 6.1125 12.9675 5.9675C13.1125 5.8225 13.29 5.75 13.5 5.75H18C18.21 5.75 18.3875 5.8225 18.5325 5.9675C18.6775 6.1125 18.75 6.29 18.75 6.5V9.5C18.75 9.71 18.6775 9.8875 18.5325 10.0325C18.3875 10.1775 18.21 10.25 18 10.25H13.5C13.29 10.25 13.1125 10.1775 12.9675 10.0325C12.8225 9.8875 12.75 9.71 12.75 9.5V6.5ZM14.25 7.25V8.75H17.25V7.25H14.25Z" fill="white"/>
</g>
<defs>
<clipPath id="clip0_182_4479">
<rect width="24" height="24" fill="white"/>
</clipPath>
</defs>
</svg>
