<svg width="24" height="24" viewBox="0 0 24 24" fill="none" xmlns="http://www.w3.org/2000/svg">
<path d="M6 8.11111H18.4444" stroke="white" stroke-width="1.5" stroke-linecap="round" stroke-linejoin="round"/>
<path d="M10.6666 11.2222V15.8889" stroke="white" stroke-width="1.5" stroke-linecap="round" stroke-linejoin="round"/>
<path d="M13.7777 11.2222V15.8889" stroke="white" stroke-width="1.5" stroke-linecap="round" stroke-linejoin="round"/>
<path d="M6.77771 8.11111L7.55549 17.4444C7.55549 17.857 7.71938 18.2527 8.0111 18.5444C8.30282 18.8361 8.69848 19 9.11104 19H15.3333C15.7458 19 16.1415 18.8361 16.4332 18.5444C16.7249 18.2527 16.8888 17.857 16.8888 17.4444L17.6666 8.11111" stroke="white" stroke-width="1.5" stroke-linecap="round" stroke-linejoin="round"/>
<path d="M9.88879 8.11111V5.77778C9.88879 5.5715 9.97074 5.37367 10.1166 5.22781C10.2625 5.08194 10.4603 5 10.6666 5H13.7777C13.984 5 14.1818 5.08194 14.3277 5.22781C14.4735 5.37367 14.5555 5.5715 14.5555 5.77778V8.11111" stroke="white" stroke-width="1.5" stroke-linecap="round" stroke-linejoin="round"/>
</svg>
