<svg width="24" height="24" viewBox="0 0 24 24" fill="none" xmlns="http://www.w3.org/2000/svg">
<path d="M7.47057 8.29418H6.64705C6.21022 8.29418 5.79129 8.46771 5.48241 8.77659C5.17353 9.08548 5 9.50441 5 9.94123V17.353C5 17.7898 5.17353 18.2087 5.48241 18.5176C5.79129 18.8265 6.21022 19 6.64705 19H14.0588C14.4956 19 14.9145 18.8265 15.2234 18.5176C15.5323 18.2087 15.7058 17.7898 15.7058 17.353V16.5294" stroke="white" stroke-width="1.5" stroke-linecap="round" stroke-linejoin="round"/>
<path d="M18.4934 7.95242C18.8178 7.62808 19 7.18818 19 6.72949C19 6.2708 18.8178 5.8309 18.4934 5.50656C18.1691 5.18221 17.7292 5 17.2705 5C16.8118 5 16.3719 5.18221 16.0476 5.50656L9.11761 12.4118V14.8824H11.5882L18.4934 7.95242Z" stroke="white" stroke-width="1.5" stroke-linecap="round" stroke-linejoin="round"/>
<path d="M14.8823 6.64714L17.3529 9.11771" stroke="white" stroke-width="1.5" stroke-linecap="round" stroke-linejoin="round"/>
</svg>
