<svg width="24" height="24" viewBox="0 0 24 24" fill="none" xmlns="http://www.w3.org/2000/svg">
<g clip-path="url(#clip0_1130_46111)">
<path d="M9.59827 11.357C9.59827 12.0887 9.88894 12.7905 10.4064 13.3079C10.9238 13.8253 11.6255 14.116 12.3572 14.116C13.089 14.116 13.7907 13.8253 14.3081 13.3079C14.8255 12.7905 15.1162 12.0887 15.1162 11.357C15.1162 10.6253 14.8255 9.92353 14.3081 9.40612C13.7907 8.88871 13.089 8.59803 12.3572 8.59803C11.6255 8.59803 10.9238 8.88871 10.4064 9.40612C9.88894 9.92353 9.59827 10.6253 9.59827 11.357Z" stroke="white" stroke-width="1.5" stroke-linecap="round" stroke-linejoin="round"/>
<path d="M17.5598 16.5595L13.6577 20.4616C13.3128 20.8062 12.8452 20.9997 12.3577 20.9997C11.8702 20.9997 11.4027 20.8062 11.0578 20.4616L7.15477 16.5595C6.12587 15.5306 5.4252 14.2196 5.14134 12.7925C4.85749 11.3653 5.00321 9.88603 5.56008 8.54168C6.11695 7.19734 7.05995 6.04831 8.26984 5.2399C9.47973 4.43149 10.9022 4 12.3573 4C13.8124 4 15.2348 4.43149 16.4447 5.2399C17.6546 6.04831 18.5976 7.19734 19.1545 8.54168C19.7114 9.88603 19.8571 11.3653 19.5732 12.7925C19.2894 14.2196 18.5887 15.5306 17.5598 16.5595Z" stroke="white" stroke-width="1.5" stroke-linecap="round" stroke-linejoin="round"/>
</g>
<defs>
<clipPath id="clip0_1130_46111">
<rect width="24" height="24" fill="white"/>
</clipPath>
</defs>
</svg>
