<svg width="24" height="24" viewBox="0 0 24 24" fill="none" xmlns="http://www.w3.org/2000/svg">
<path d="M13.5 3V7C13.5 7.26522 13.6054 7.51957 13.7929 7.70711C13.9804 7.89464 14.2348 8 14.5 8H18.5" stroke="white" stroke-width="1.5" stroke-linecap="round" stroke-linejoin="round"/>
<path d="M4.5 12V5C4.5 4.46957 4.71071 3.96086 5.08579 3.58579C5.46086 3.21071 5.96957 3 6.5 3H13.5L18.5 8V12" stroke="white" stroke-width="1.5" stroke-linecap="round" stroke-linejoin="round"/>
<path d="M4.5 18H6C6.39782 18 6.77936 17.842 7.06066 17.5607C7.34196 17.2794 7.5 16.8978 7.5 16.5C7.5 16.1022 7.34196 15.7206 7.06066 15.4393C6.77936 15.158 6.39782 15 6 15H4.5V21" stroke="white" stroke-width="1.5" stroke-linecap="round" stroke-linejoin="round"/>
<path d="M16.5 18H18.5" stroke="white" stroke-width="1.5" stroke-linecap="round" stroke-linejoin="round"/>
<path d="M19.5 15H16.5V21" stroke="white" stroke-width="1.5" stroke-linecap="round" stroke-linejoin="round"/>
<path d="M10.5 15V21H11.5C12.0304 21 12.5391 20.7893 12.9142 20.4142C13.2893 20.0391 13.5 19.5304 13.5 19V17C13.5 16.4696 13.2893 15.9609 12.9142 15.5858C12.5391 15.2107 12.0304 15 11.5 15H10.5Z" stroke="white" stroke-width="1.5" stroke-linecap="round" stroke-linejoin="round"/>
</svg>
