<svg width="24" height="24" viewBox="0 0 24 24" fill="none" xmlns="http://www.w3.org/2000/svg">
<path d="M5 17.4444C5 17.857 5.16389 18.2527 5.45561 18.5444C5.74733 18.8361 6.143 19 6.55556 19C6.96811 19 7.36378 18.8361 7.6555 18.5444C7.94722 18.2527 8.11111 17.857 8.11111 17.4444C8.11111 17.0319 7.94722 16.6362 7.6555 16.3445C7.36378 16.0528 6.96811 15.8889 6.55556 15.8889C6.143 15.8889 5.74733 16.0528 5.45561 16.3445C5.16389 16.6362 5 17.0319 5 17.4444Z" stroke="white" stroke-width="1.5" stroke-linecap="round" stroke-linejoin="round"/>
<path d="M17.4445 8.11111C17.857 8.11111 18.2527 7.94722 18.5444 7.6555C18.8361 7.36378 19 6.96811 19 6.55556C19 6.143 18.8361 5.74733 18.5444 5.45561C18.2527 5.16389 17.857 5 17.4445 5C17.0319 5 16.6363 5.16389 16.3445 5.45561C16.0528 5.74733 15.8889 6.143 15.8889 6.55556C15.8889 6.96811 16.0528 7.36378 16.3445 7.6555C16.6363 7.94722 17.0319 8.11111 17.4445 8.11111Z" stroke="white" stroke-width="1.5" stroke-linecap="round" stroke-linejoin="round"/>
<path d="M11.2222 17.4444H15.5C16.222 17.4444 16.9144 17.1576 17.4249 16.6471C17.9354 16.1366 18.2222 15.4442 18.2222 14.7222C18.2222 14.0002 17.9354 13.3078 17.4249 12.7973C16.9144 12.2868 16.222 12 15.5 12H9.27776C8.55579 12 7.86338 11.7132 7.35286 11.2027C6.84235 10.6922 6.55554 9.99976 6.55554 9.27778C6.55554 8.5558 6.84235 7.86339 7.35286 7.35288C7.86338 6.84236 8.55579 6.55556 9.27776 6.55556H12.7778" stroke="white" stroke-width="1.5" stroke-linecap="round" stroke-linejoin="round"/>
</svg>
