<svg width="24" height="24" viewBox="0 0 24 24" fill="none" xmlns="http://www.w3.org/2000/svg">
<path d="M6 4H16L20 8V18C20 18.5304 19.7893 19.0391 19.4142 19.4142C19.0391 19.7893 18.5304 20 18 20H6C5.46957 20 4.96086 19.7893 4.58579 19.4142C4.21071 19.0391 4 18.5304 4 18V6C4 5.46957 4.21071 4.96086 4.58579 4.58579C4.96086 4.21071 5.46957 4 6 4Z" stroke="white" stroke-width="1.5" stroke-linecap="round" stroke-linejoin="round"/>
<path d="M8 15.3V19.7C8 19.8657 8.13431 20 8.3 20H15.7C15.8657 20 16 19.8657 16 19.7V15.3C16 15.1343 15.8657 15 15.7 15H8.3C8.13431 15 8 15.1343 8 15.3Z" stroke="white" stroke-width="1.5"/>
<path d="M14 4V8H8V4" stroke="white" stroke-width="1.5" stroke-linecap="round" stroke-linejoin="round"/>
</svg>
