<svg width="24" height="24" viewBox="0 0 24 24" fill="none" xmlns="http://www.w3.org/2000/svg">
<g clip-path="url(#clip0_63_7089)">
<path d="M4 11C4 11.9193 4.18106 12.8295 4.53284 13.6788C4.88463 14.5281 5.40024 15.2997 6.05025 15.9497C6.70026 16.5998 7.47194 17.1154 8.32122 17.4672C9.1705 17.8189 10.0807 18 11 18C11.9193 18 12.8295 17.8189 13.6788 17.4672C14.5281 17.1154 15.2997 16.5998 15.9497 15.9497C16.5998 15.2997 17.1154 14.5281 17.4672 13.6788C17.8189 12.8295 18 11.9193 18 11C18 10.0807 17.8189 9.1705 17.4672 8.32122C17.1154 7.47194 16.5998 6.70026 15.9497 6.05025C15.2997 5.40024 14.5281 4.88463 13.6788 4.53284C12.8295 4.18106 11.9193 4 11 4C10.0807 4 9.1705 4.18106 8.32122 4.53284C7.47194 4.88463 6.70026 5.40024 6.05025 6.05025C5.40024 6.70026 4.88463 7.47194 4.53284 8.32122C4.18106 9.1705 4 10.0807 4 11Z" stroke="white" stroke-width="1.5" stroke-linecap="round" stroke-linejoin="round"/>
<path d="M20 20L16 16" stroke="white" stroke-width="1.5" stroke-linecap="round" stroke-linejoin="round"/>
</g>
<defs>
<clipPath id="clip0_63_7089">
<rect width="24" height="24" fill="white"/>
</clipPath>
</defs>
</svg>
