<svg width="24" height="24" viewBox="0 0 24 24" fill="none" xmlns="http://www.w3.org/2000/svg">
<path d="M7 7C7 8.06087 7.42143 9.07828 8.17157 9.82843C8.92172 10.5786 9.93913 11 11 11C12.0609 11 13.0783 10.5786 13.8284 9.82843C14.5786 9.07828 15 8.06087 15 7C15 5.93913 14.5786 4.92172 13.8284 4.17157C13.0783 3.42143 12.0609 3 11 3C9.93913 3 8.92172 3.42143 8.17157 4.17157C7.42143 4.92172 7 5.93913 7 7Z" stroke="white" stroke-width="1.5" stroke-linecap="round" stroke-linejoin="round"/>
<path d="M5 20V18.3333C5 17.4493 5.3746 16.6014 6.0414 15.9763C6.70819 15.3512 7.61256 15 8.55556 15H9" stroke="white" stroke-width="1.5" stroke-linecap="round" stroke-linejoin="round"/>
<path d="M16.0006 19.9646L13.932 20.9602C13.8706 20.9896 13.8016 21.0027 13.7325 20.9981C13.6635 20.9935 13.5973 20.9713 13.5411 20.9341C13.485 20.8969 13.4413 20.8461 13.4148 20.7874C13.3883 20.7286 13.3801 20.6643 13.3911 20.6015L13.7863 18.4921L12.113 16.9987C12.063 16.9543 12.0277 16.898 12.0109 16.836C11.9942 16.7741 11.9967 16.7091 12.0183 16.6484C12.0398 16.5878 12.0795 16.5339 12.1328 16.4929C12.1861 16.452 12.2508 16.4256 12.3196 16.4169L14.632 16.1089L15.6663 14.1903C15.6972 14.1331 15.7449 14.085 15.8039 14.0514C15.863 14.0178 15.9311 14 16.0006 14C16.07 14 16.1381 14.0178 16.1972 14.0514C16.2562 14.085 16.3039 14.1331 16.3348 14.1903L17.3691 16.1089L19.6815 16.4169C19.7501 16.4259 19.8146 16.4525 19.8676 16.4935C19.9207 16.5344 19.9602 16.5882 19.9817 16.6488C20.0032 16.7093 20.0058 16.7742 19.9893 16.836C19.9727 16.8978 19.9377 16.9542 19.8881 16.9987L18.2148 18.4921L18.6091 20.6007C18.6209 20.6635 18.6133 20.7282 18.5872 20.7873C18.561 20.8464 18.5173 20.8976 18.4611 20.9351C18.4048 20.9725 18.3383 20.9947 18.269 20.9992C18.1997 21.0036 18.1305 20.9901 18.0691 20.9602L16.0006 19.9646Z" stroke="white" stroke-width="1.5" stroke-linecap="round" stroke-linejoin="round"/>
</svg>
