<svg width="24" height="24" viewBox="0 0 24 24" fill="none" xmlns="http://www.w3.org/2000/svg">
<path d="M5.77771 7.55556C5.77771 8.49855 6.15231 9.40292 6.81911 10.0697C7.4859 10.7365 8.39027 11.1111 9.33327 11.1111C10.2763 11.1111 11.1806 10.7365 11.8474 10.0697C12.5142 9.40292 12.8888 8.49855 12.8888 7.55556C12.8888 6.61256 12.5142 5.70819 11.8474 5.0414C11.1806 4.3746 10.2763 4 9.33327 4C8.39027 4 7.4859 4.3746 6.81911 5.0414C6.15231 5.70819 5.77771 6.61256 5.77771 7.55556Z" stroke="white" stroke-width="1.5" stroke-linecap="round" stroke-linejoin="round"/>
<path d="M4 20V18.2222C4 17.2792 4.3746 16.3749 5.0414 15.7081C5.70819 15.0413 6.61256 14.6667 7.55556 14.6667H11.1111C12.0541 14.6667 12.9585 15.0413 13.6253 15.7081C14.2921 16.3749 14.6667 17.2792 14.6667 18.2222V20" stroke="white" stroke-width="1.5" stroke-linecap="round" stroke-linejoin="round"/>
<path d="M15.5555 4.11555C16.3204 4.31138 16.9982 4.75618 17.4823 5.37983C17.9664 6.00348 18.2292 6.77051 18.2292 7.56C18.2292 8.34948 17.9664 9.11651 17.4823 9.74017C16.9982 10.3638 16.3204 10.8086 15.5555 11.0044" stroke="white" stroke-width="1.5" stroke-linecap="round" stroke-linejoin="round"/>
<path d="M19.9999 20V18.2222C19.9954 17.4375 19.7314 16.6763 19.249 16.0572C18.7667 15.4382 18.0931 14.9962 17.3333 14.8" stroke="white" stroke-width="1.5" stroke-linecap="round" stroke-linejoin="round"/>
</svg>
