<svg width="24" height="24" viewBox="0 0 24 24" fill="none" xmlns="http://www.w3.org/2000/svg">
<path d="M4.5 12C4.5 12.9849 4.69399 13.9602 5.0709 14.8701C5.44781 15.7801 6.00026 16.6069 6.6967 17.3033C7.39314 17.9997 8.21993 18.5522 9.12987 18.9291C10.0398 19.306 11.0151 19.5 12 19.5C12.9849 19.5 13.9602 19.306 14.8701 18.9291C15.7801 18.5522 16.6069 17.9997 17.3033 17.3033C17.9997 16.6069 18.5522 15.7801 18.9291 14.8701C19.306 13.9602 19.5 12.9849 19.5 12C19.5 11.0151 19.306 10.0398 18.9291 9.12987C18.5522 8.21993 17.9997 7.39314 17.3033 6.6967C16.6069 6.00026 15.7801 5.44781 14.8701 5.0709C13.9602 4.69399 12.9849 4.5 12 4.5C11.0151 4.5 10.0398 4.69399 9.12987 5.0709C8.21993 5.44781 7.39314 6.00026 6.6967 6.6967C6.00026 7.39314 5.44781 8.21993 5.0709 9.12987C4.69399 10.0398 4.5 11.0151 4.5 12Z" stroke="white" stroke-width="1.5" stroke-linecap="round" stroke-linejoin="round"/>
<path d="M12 12H14.9167" stroke="white" stroke-width="1.5" stroke-linecap="round" stroke-linejoin="round"/>
<path d="M12 7.83333V12" stroke="white" stroke-width="1.5" stroke-linecap="round" stroke-linejoin="round"/>
</svg>
