<svg width="24" height="24" viewBox="0 0 24 24" fill="none" xmlns="http://www.w3.org/2000/svg">
<path d="M8.77771 7.55556C8.77771 8.49855 9.15231 9.40292 9.81911 10.0697C10.4859 10.7365 11.3903 11.1111 12.3333 11.1111C13.2763 11.1111 14.1806 10.7365 14.8474 10.0697C15.5142 9.40292 15.8888 8.49855 15.8888 7.55556C15.8888 6.61256 15.5142 5.70819 14.8474 5.0414C14.1806 4.3746 13.2763 4 12.3333 4C11.3903 4 10.4859 4.3746 9.81911 5.0414C9.15231 5.70819 8.77771 6.61256 8.77771 7.55556Z" stroke="white" stroke-width="1.5" stroke-linecap="round" stroke-linejoin="round"/>
<path d="M7 20V18.2222C7 17.2792 7.3746 16.3749 8.0414 15.7081C8.70819 15.0413 9.61256 14.6667 10.5556 14.6667H14.1111C15.0541 14.6667 15.9585 15.0413 16.6253 15.7081C17.2921 16.3749 17.6667 17.2792 17.6667 18.2222V20" stroke="white" stroke-width="1.5" stroke-linecap="round" stroke-linejoin="round"/>
</svg>
