<svg width="20" height="20" viewBox="0 0 20 20" fill="none" xmlns="http://www.w3.org/2000/svg">
<path d="M11.5 17.25C11.29 17.25 11.1125 17.1775 10.9675 17.0325C10.8225 16.8875 10.75 16.71 10.75 16.5V10.5C10.75 10.29 10.8225 10.1125 10.9675 9.9675C11.1125 9.8225 11.29 9.75 11.5 9.75H16C16.21 9.75 16.3875 9.8225 16.5325 9.9675C16.6775 10.1125 16.75 10.29 16.75 10.5V16.5C16.75 16.71 16.6775 16.8875 16.5325 17.0325C16.3875 17.1775 16.21 17.25 16 17.25H11.5ZM4 11.25C3.79 11.25 3.6125 11.1775 3.4675 11.0325C3.3225 10.8875 3.25 10.71 3.25 10.5V4.5C3.25 4.29 3.3225 4.1125 3.4675 3.9675C3.6125 3.8225 3.79 3.75 4 3.75H8.5C8.71 3.75 8.8875 3.8225 9.0325 3.9675C9.1775 4.1125 9.25 4.29 9.25 4.5V10.5C9.25 10.71 9.1775 10.8875 9.0325 11.0325C8.8875 11.1775 8.71 11.25 8.5 11.25H4ZM7.75 9.75V5.25H4.75V9.75H7.75ZM4 17.25C3.79 17.25 3.6125 17.1775 3.4675 17.0325C3.3225 16.8875 3.25 16.71 3.25 16.5V13.5C3.25 13.29 3.3225 13.1125 3.4675 12.9675C3.6125 12.8225 3.79 12.75 4 12.75H8.5C8.71 12.75 8.8875 12.8225 9.0325 12.9675C9.1775 13.1125 9.25 13.29 9.25 13.5V16.5C9.25 16.71 9.1775 16.8875 9.0325 17.0325C8.8875 17.1775 8.71 17.25 8.5 17.25H4ZM4.75 15.75H7.75V14.25H4.75V15.75ZM12.25 15.75H15.25V11.25H12.25V15.75ZM10.75 4.5C10.75 4.29 10.8225 4.1125 10.9675 3.9675C11.1125 3.8225 11.29 3.75 11.5 3.75H16C16.21 3.75 16.3875 3.8225 16.5325 3.9675C16.6775 4.1125 16.75 4.29 16.75 4.5V7.5C16.75 7.71 16.6775 7.8875 16.5325 8.0325C16.3875 8.1775 16.21 8.25 16 8.25H11.5C11.29 8.25 11.1125 8.1775 10.9675 8.0325C10.8225 7.8875 10.75 7.71 10.75 7.5V4.5ZM12.25 5.25V6.75H15.25V5.25H12.25Z" fill="white"/>
</svg>
