<svg width="24" height="24" viewBox="0 0 24 24" fill="none" xmlns="http://www.w3.org/2000/svg">
<path d="M9.55556 5.77777H7.77778C7.30628 5.77777 6.8541 5.96507 6.5207 6.29847C6.1873 6.63187 6 7.08405 6 7.55555V18.2222C6 18.6937 6.1873 19.1459 6.5207 19.4793C6.8541 19.8127 7.30628 20 7.77778 20H16.6667C17.1382 20 17.5903 19.8127 17.9237 19.4793C18.2571 19.1459 18.4444 18.6937 18.4444 18.2222V7.55555C18.4444 7.08405 18.2571 6.63187 17.9237 6.29847C17.5903 5.96507 17.1382 5.77777 16.6667 5.77777H14.8889" stroke="white" stroke-width="1.5" stroke-linecap="round" stroke-linejoin="round"/>
<path d="M9.55554 5.77778C9.55554 5.30628 9.74284 4.8541 10.0762 4.5207C10.4096 4.1873 10.8618 4 11.3333 4H13.1111C13.5826 4 14.0348 4.1873 14.3682 4.5207C14.7016 4.8541 14.8889 5.30628 14.8889 5.77778C14.8889 6.24927 14.7016 6.70146 14.3682 7.03486C14.0348 7.36825 13.5826 7.55556 13.1111 7.55556H11.3333C10.8618 7.55556 10.4096 7.36825 10.0762 7.03486C9.74284 6.70146 9.55554 6.24927 9.55554 5.77778Z" stroke="white" stroke-width="1.5" stroke-linecap="round" stroke-linejoin="round"/>
<path d="M14 11.1111H11.7778C11.4242 11.1111 11.085 11.2516 10.835 11.5016C10.5849 11.7517 10.4445 12.0908 10.4445 12.4444C10.4445 12.7981 10.5849 13.1372 10.835 13.3873C11.085 13.6373 11.4242 13.7778 11.7778 13.7778H12.6667C13.0203 13.7778 13.3594 13.9183 13.6095 14.1683C13.8595 14.4184 14 14.7575 14 15.1111C14 15.4647 13.8595 15.8039 13.6095 16.0539C13.3594 16.304 13.0203 16.4444 12.6667 16.4444H10.4445" stroke="white" stroke-width="1.5" stroke-linecap="round" stroke-linejoin="round"/>
<path d="M12.2222 16.4445V17.3333M12.2222 10.2222V11.1111" stroke="white" stroke-width="1.5" stroke-linecap="round" stroke-linejoin="round"/>
</svg>
