<svg width="24" height="24" viewBox="0 0 24 24" fill="none" xmlns="http://www.w3.org/2000/svg">
<path d="M4 11.5419C4 12.5924 4.20693 13.6327 4.60896 14.6033C5.011 15.5739 5.60028 16.4559 6.34315 17.1987C7.08601 17.9416 7.96793 18.5309 8.93853 18.9329C9.90914 19.3349 10.9494 19.5419 12 19.5419C13.0506 19.5419 14.0909 19.3349 15.0615 18.9329C16.0321 18.5309 16.914 17.9416 17.6569 17.1987C18.3997 16.4559 18.989 15.5739 19.391 14.6033C19.7931 13.6327 20 12.5924 20 11.5419C20 10.4913 19.7931 9.45101 19.391 8.4804C18.989 7.5098 18.3997 6.62788 17.6569 5.88502C16.914 5.14215 16.0321 4.55287 15.0615 4.15083C14.0909 3.7488 13.0506 3.54187 12 3.54187C10.9494 3.54187 9.90914 3.7488 8.93853 4.15083C7.96793 4.55287 7.08601 5.14215 6.34315 5.88502C5.60028 6.62788 5.011 7.5098 4.60896 8.4804C4.20693 9.45101 4 10.4913 4 11.5419Z" stroke="white" stroke-width="1.33333" stroke-linecap="round" stroke-linejoin="round"/>
<path d="M12 15.9863V15.9952" stroke="white" stroke-width="1.33333" stroke-linecap="round" stroke-linejoin="round"/>
<path d="M12 12.8752C11.9836 12.5867 12.0615 12.3006 12.2218 12.0601C12.3821 11.8197 12.6162 11.6378 12.8889 11.5419C13.223 11.4141 13.5229 11.2106 13.765 10.9472C14.007 10.6838 14.1846 10.3679 14.2838 10.0242C14.3831 9.68054 14.4011 9.31852 14.3367 8.96668C14.2722 8.61483 14.1269 8.28275 13.9123 7.99659C13.6977 7.71042 13.4195 7.47798 13.0998 7.31757C12.7801 7.15715 12.4275 7.07314 12.0698 7.07215C11.7121 7.07116 11.3591 7.15321 11.0384 7.31185C10.7178 7.47049 10.4384 7.70138 10.2222 7.98635" stroke="white" stroke-width="1.33333" stroke-linecap="round" stroke-linejoin="round"/>
</svg>
