<svg width="24" height="24" viewBox="0 0 24 24" fill="none" xmlns="http://www.w3.org/2000/svg">
<path d="M13.7778 7.98634V6.20856C13.7778 5.73707 13.5905 5.28488 13.2571 4.95149C12.9237 4.61809 12.4715 4.43079 12 4.43079H5.77778C5.30628 4.43079 4.8541 4.61809 4.5207 4.95149C4.1873 5.28488 4 5.73707 4 6.20856V16.8752C4 17.3467 4.1873 17.7989 4.5207 18.1323C4.8541 18.4657 5.30628 18.653 5.77778 18.653H12C12.4715 18.653 12.9237 18.4657 13.2571 18.1323C13.5905 17.7989 13.7778 17.3467 13.7778 16.8752V15.0975" stroke="white" stroke-width="1.33333" stroke-linecap="round" stroke-linejoin="round"/>
<path d="M9.33331 11.5419H20L17.3333 8.87521" stroke="white" stroke-width="1.33333" stroke-linecap="round" stroke-linejoin="round"/>
<path d="M17.3334 14.2088L20 11.5421" stroke="white" stroke-width="1.33333" stroke-linecap="round" stroke-linejoin="round"/>
</svg>
