<svg width="24" height="24" viewBox="0 0 24 24" fill="none" xmlns="http://www.w3.org/2000/svg">
<path d="M10.5111 4.71254C10.8898 3.15165 13.1102 3.15165 13.4889 4.71254C13.5457 4.94703 13.6571 5.16478 13.814 5.34809C13.9708 5.5314 14.1688 5.67507 14.3917 5.76742C14.6146 5.85977 14.8561 5.89818 15.0967 5.87953C15.3372 5.86088 15.57 5.78569 15.776 5.66009C17.1476 4.82454 18.7182 6.39431 17.8827 7.76676C17.7572 7.97268 17.6822 8.20528 17.6636 8.44567C17.645 8.68606 17.6833 8.92744 17.7756 9.15021C17.8678 9.37297 18.0113 9.57083 18.1944 9.72769C18.3775 9.88456 18.5951 9.99601 18.8293 10.053C20.3902 10.4316 20.3902 12.6521 18.8293 13.0308C18.5948 13.0876 18.3771 13.199 18.1938 13.3558C18.0105 13.5127 17.8668 13.7107 17.7744 13.9336C17.6821 14.1565 17.6437 14.398 17.6623 14.6386C17.681 14.8791 17.7562 15.1119 17.8818 15.3179C18.7173 16.6894 17.1476 18.2601 15.7751 17.4245C15.5692 17.2991 15.3366 17.224 15.0962 17.2054C14.8558 17.1868 14.6144 17.2252 14.3917 17.3175C14.1689 17.4097 13.971 17.5532 13.8142 17.7363C13.6573 17.9194 13.5459 18.1369 13.4889 18.3712C13.1102 19.9321 10.8898 19.9321 10.5111 18.3712C10.4543 18.1367 10.3429 17.919 10.186 17.7356C10.0292 17.5523 9.83121 17.4087 9.60831 17.3163C9.38541 17.224 9.14385 17.1856 8.9033 17.2042C8.66275 17.2229 8.43 17.298 8.224 17.4236C6.85244 18.2592 5.28178 16.6894 6.11733 15.317C6.24276 15.1111 6.31782 14.8785 6.33643 14.6381C6.35504 14.3977 6.31666 14.1563 6.22442 13.9335C6.13218 13.7108 5.98868 13.5129 5.80558 13.356C5.62248 13.1992 5.40495 13.0877 5.17067 13.0308C3.60978 12.6521 3.60978 10.4316 5.17067 10.053C5.40515 9.99617 5.62291 9.88478 5.80622 9.72791C5.98953 9.57103 6.1332 9.37308 6.22555 9.15018C6.3179 8.92728 6.35631 8.68572 6.33766 8.44517C6.31901 8.20462 6.24382 7.97187 6.11822 7.76587C5.28267 6.39431 6.85244 4.82365 8.22489 5.6592C9.11378 6.19965 10.2658 5.72143 10.5111 4.71254Z" stroke="white" stroke-width="1.24444" stroke-linecap="round" stroke-linejoin="round"/>
<path d="M9.33331 11.5419C9.33331 12.2491 9.61426 12.9274 10.1144 13.4275C10.6145 13.9276 11.2927 14.2085 12 14.2085C12.7072 14.2085 13.3855 13.9276 13.8856 13.4275C14.3857 12.9274 14.6666 12.2491 14.6666 11.5419C14.6666 10.8346 14.3857 10.1564 13.8856 9.65626C13.3855 9.15616 12.7072 8.87521 12 8.87521C11.2927 8.87521 10.6145 9.15616 10.1144 9.65626C9.61426 10.1564 9.33331 10.8346 9.33331 11.5419Z" stroke="white" stroke-width="1.24444" stroke-linecap="round" stroke-linejoin="round"/>
</svg>
