<svg width="24" height="24" viewBox="0 0 24 24" fill="none" xmlns="http://www.w3.org/2000/svg">
<path d="M11 14.22V15.72C10.19 15.72 9.435 15.925 8.735 16.335C8.055 16.735 7.515 17.27 7.115 17.94C6.705 18.64 6.5 19.4 6.5 20.22H5C5 19.13 5.275 18.12 5.825 17.19C6.355 16.28 7.07 15.56 7.97 15.03C8.9 14.49 9.91 14.22 11 14.22ZM11 13.47C10.19 13.47 9.435 13.265 8.735 12.855C8.055 12.455 7.515 11.915 7.115 11.235C6.705 10.535 6.5 9.7775 6.5 8.9625C6.5 8.1475 6.705 7.39 7.115 6.69C7.515 6.02 8.055 5.485 8.735 5.085C9.435 4.675 10.1925 4.47 11.0075 4.47C11.8225 4.47 12.58 4.675 13.28 5.085C13.95 5.485 14.485 6.02 14.885 6.69C15.295 7.39 15.5 8.1475 15.5 8.9625C15.5 9.7775 15.295 10.535 14.885 11.235C14.485 11.915 13.95 12.455 13.28 12.855C12.58 13.265 11.82 13.47 11 13.47ZM11 11.97C11.54 11.97 12.04 11.835 12.5 11.565C12.96 11.295 13.325 10.93 13.595 10.47C13.865 10.01 14 9.51 14 8.97C14 8.43 13.865 7.93 13.595 7.47C13.325 7.01 12.96 6.645 12.5 6.375C12.04 6.105 11.54 5.97 11 5.97C10.46 5.97 9.96 6.105 9.5 6.375C9.04 6.645 8.675 7.01 8.405 7.47C8.135 7.93 8 8.43 8 8.97C8 9.51 8.135 10.01 8.405 10.47C8.675 10.93 9.04 11.295 9.5 11.565C9.96 11.835 10.46 11.97 11 11.97ZM15.5 19.845L13.295 21L13.715 18.54L11.93 16.815L14.405 16.455L15.5 14.22L16.61 16.455L19.07 16.815L17.285 18.54L17.705 21L15.5 19.845Z" fill="white"/>
</svg>
