<svg width="24" height="24" viewBox="0 0 24 24" fill="none" xmlns="http://www.w3.org/2000/svg">
<path d="M5.77783 7.55555C5.77783 8.49854 6.15243 9.40291 6.81923 10.0697C7.48602 10.7365 8.39039 11.1111 9.33338 11.1111C10.2764 11.1111 11.1807 10.7365 11.8475 10.0697C12.5143 9.40291 12.8889 8.49854 12.8889 7.55555C12.8889 6.61256 12.5143 5.70819 11.8475 5.0414C11.1807 4.3746 10.2764 4 9.33338 4C8.39039 4 7.48602 4.3746 6.81923 5.0414C6.15243 5.70819 5.77783 6.61256 5.77783 7.55555Z" stroke="white" stroke-width="1.5" stroke-linecap="round" stroke-linejoin="round"/>
<path d="M4 20V18.2222C4 17.2792 4.3746 16.3748 5.0414 15.7081C5.70819 15.0413 6.61256 14.6667 7.55555 14.6667H11.1111C12.0541 14.6667 12.9584 15.0413 13.6252 15.7081C14.292 16.3748 14.6666 17.2792 14.6666 18.2222V20" stroke="white" stroke-width="1.5" stroke-linecap="round" stroke-linejoin="round"/>
<path d="M15.5554 4.11557C16.3202 4.31139 16.9981 4.75619 17.4822 5.37984C17.9663 6.0035 18.2291 6.77053 18.2291 7.56001C18.2291 8.34949 17.9663 9.11652 17.4822 9.74017C16.9981 10.3638 16.3202 10.8086 15.5554 11.0044" stroke="white" stroke-width="1.5" stroke-linecap="round" stroke-linejoin="round"/>
<path d="M19.9999 20V18.2223C19.9954 17.4375 19.7314 16.6763 19.249 16.0573C18.7667 15.4383 18.0931 14.9962 17.3333 14.8" stroke="white" stroke-width="1.5" stroke-linecap="round" stroke-linejoin="round"/>
</svg>
